<?xml version="1.0" encoding="UTF-8" standalone="no"?>
<!DOCTYPE svg PUBLIC "-//W3C//DTD SVG 1.1//EN"
 "http://www.w3.org/Graphics/SVG/1.1/DTD/svg11.dtd">
<!-- Generated by graphviz version 15.1.0 (20260618.0150)
 -->
<!-- Title: G Pages: 1 -->
<svg width="1131pt" height="505pt"
 viewBox="0.00 0.00 1131.00 505.00" xmlns="http://www.w3.org/2000/svg" xmlns:xlink="http://www.w3.org/1999/xlink">
<g id="graph0" class="graph" transform="scale(1 1) rotate(0) translate(21.6 483.35)">
<title>G</title>
<polygon fill="#111111" stroke="none" points="-21.6,21.6 -21.6,-483.35 1109.85,-483.35 1109.85,21.6 -21.6,21.6"/>
<!-- App.jsx -->
<g id="node1" class="node">
<title>App.jsx</title>
<path fill="none" stroke="#c6c5fe" d="M160.58,-265.75C160.58,-265.75 116.17,-265.75 116.17,-265.75 112.21,-265.75 108.25,-261.79 108.25,-257.83 108.25,-257.83 108.25,-249.92 108.25,-249.92 108.25,-245.96 112.21,-242 116.17,-242 116.17,-242 160.58,-242 160.58,-242 164.54,-242 168.5,-245.96 168.5,-249.92 168.5,-249.92 168.5,-257.83 168.5,-257.83 168.5,-261.79 164.54,-265.75 160.58,-265.75"/>
<text xml:space="preserve" text-anchor="middle" x="138.38" y="-248.45" font-family="Arial" font-size="14.00" fill="#c6c5fe">App.jsx</text>
</g>
<!-- component/ProtectedRoute.jsx -->
<g id="node2" class="node">
<title>component/ProtectedRoute.jsx</title>
<path fill="none" stroke="#c6c5fe" d="M617.08,-217.75C617.08,-217.75 431.67,-217.75 431.67,-217.75 427.71,-217.75 423.75,-213.79 423.75,-209.83 423.75,-209.83 423.75,-201.92 423.75,-201.92 423.75,-197.96 427.71,-194 431.67,-194 431.67,-194 617.08,-194 617.08,-194 621.04,-194 625,-197.96 625,-201.92 625,-201.92 625,-209.83 625,-209.83 625,-213.79 621.04,-217.75 617.08,-217.75"/>
<text xml:space="preserve" text-anchor="middle" x="524.38" y="-200.45" font-family="Arial" font-size="14.00" fill="#c6c5fe">component/ProtectedRoute.jsx</text>
</g>
<!-- App.jsx&#45;&gt;component/ProtectedRoute.jsx -->
<g id="edge1" class="edge">
<title>App.jsx&#45;&gt;component/ProtectedRoute.jsx</title>
<path fill="none" stroke="#757575" d="M143.43,-241.77C151.8,-219.01 173.36,-170.36 210.5,-150.88 280.26,-114.27 314.55,-121.77 387.75,-150.88 408.2,-159.01 404.25,-174.67 423.75,-184.88 427,-186.58 430.38,-188.14 433.84,-189.58"/>
<polygon fill="#757575" stroke="#757575" points="432.43,-192.79 443.02,-192.99 434.87,-186.23 432.43,-192.79"/>
</g>
<!-- context/AuthContext.jsx -->
<g id="node3" class="node">
<title>context/AuthContext.jsx</title>
<path fill="none" stroke="#cfffac" d="M841.21,-257.75C841.21,-257.75 699.29,-257.75 699.29,-257.75 695.33,-257.75 691.38,-253.79 691.38,-249.83 691.38,-249.83 691.38,-241.92 691.38,-241.92 691.38,-237.96 695.33,-234 699.29,-234 699.29,-234 841.21,-234 841.21,-234 845.17,-234 849.12,-237.96 849.12,-241.92 849.12,-241.92 849.12,-249.83 849.12,-249.83 849.12,-253.79 845.17,-257.75 841.21,-257.75"/>
<text xml:space="preserve" text-anchor="middle" x="770.25" y="-240.45" font-family="Arial" font-size="14.00" fill="#cfffac">context/AuthContext.jsx</text>
</g>
<!-- App.jsx&#45;&gt;context/AuthContext.jsx -->
<g id="edge2" class="edge">
<title>App.jsx&#45;&gt;context/AuthContext.jsx</title>
<path fill="none" stroke="#757575" d="M160.11,-266.1C173.92,-273.65 192.73,-282.83 210.5,-287.88 387.99,-338.28 444.61,-349.64 625,-310.88 666.86,-301.88 711.22,-279.74 739.51,-263.8"/>
<polygon fill="#757575" stroke="#757575" points="740.94,-267.02 747.87,-259 737.45,-260.95 740.94,-267.02"/>
</g>
<!-- context/ThemeContext.jsx -->
<g id="node4" class="node">
<title>context/ThemeContext.jsx</title>
<path fill="none" stroke="#cfffac" d="M1080.33,-216.75C1080.33,-216.75 923.42,-216.75 923.42,-216.75 919.46,-216.75 915.5,-212.79 915.5,-208.83 915.5,-208.83 915.5,-200.92 915.5,-200.92 915.5,-196.96 919.46,-193 923.42,-193 923.42,-193 1080.33,-193 1080.33,-193 1084.29,-193 1088.25,-196.96 1088.25,-200.92 1088.25,-200.92 1088.25,-208.83 1088.25,-208.83 1088.25,-212.79 1084.29,-216.75 1080.33,-216.75"/>
<text xml:space="preserve" text-anchor="middle" x="1001.88" y="-199.45" font-family="Arial" font-size="14.00" fill="#cfffac">context/ThemeContext.jsx</text>
</g>
<!-- App.jsx&#45;&gt;context/ThemeContext.jsx -->
<g id="edge3" class="edge">
<title>App.jsx&#45;&gt;context/ThemeContext.jsx</title>
<path fill="none" stroke="#757575" d="M147.56,-266C159.32,-282.26 182.67,-310.52 210.5,-322.88 378.97,-397.68 442.33,-361.54 625,-336.88 741.26,-321.18 770.14,-309.33 879.5,-266.88 911.4,-254.49 945.98,-236.32 970.05,-222.84"/>
<polygon fill="#757575" stroke="#757575" points="971.7,-225.93 978.68,-217.95 968.25,-219.84 971.7,-225.93"/>
</g>
<!-- layout/AppLayout.jsx -->
<g id="node5" class="node">
<title>layout/AppLayout.jsx</title>
<path fill="none" stroke="#c6c5fe" d="M361.46,-103.75C361.46,-103.75 236.79,-103.75 236.79,-103.75 232.83,-103.75 228.88,-99.79 228.88,-95.83 228.88,-95.83 228.88,-87.92 228.88,-87.92 228.88,-83.96 232.83,-80 236.79,-80 236.79,-80 361.46,-80 361.46,-80 365.42,-80 369.38,-83.96 369.38,-87.92 369.38,-87.92 369.38,-95.83 369.38,-95.83 369.38,-99.79 365.42,-103.75 361.46,-103.75"/>
<text xml:space="preserve" text-anchor="middle" x="299.12" y="-86.45" font-family="Arial" font-size="14.00" fill="#c6c5fe">layout/AppLayout.jsx</text>
</g>
<!-- App.jsx&#45;&gt;layout/AppLayout.jsx -->
<g id="edge4" class="edge">
<title>App.jsx&#45;&gt;layout/AppLayout.jsx</title>
<path fill="none" stroke="#757575" d="M142.29,-241.66C149.29,-215.06 169.56,-151.57 210.5,-117.88 214.65,-114.46 219.23,-111.5 224.06,-108.92"/>
<polygon fill="#757575" stroke="#757575" points="225.3,-112.2 232.89,-104.8 222.34,-105.86 225.3,-112.2"/>
</g>
<!-- pages/CoinDetailsPage.jsx -->
<g id="node6" class="node">
<title>pages/CoinDetailsPage.jsx</title>
<path fill="none" stroke="#cfffac" d="M379.83,-225.75C379.83,-225.75 218.42,-225.75 218.42,-225.75 214.46,-225.75 210.5,-221.79 210.5,-217.83 210.5,-217.83 210.5,-209.92 210.5,-209.92 210.5,-205.96 214.46,-202 218.42,-202 218.42,-202 379.83,-202 379.83,-202 383.79,-202 387.75,-205.96 387.75,-209.92 387.75,-209.92 387.75,-217.83 387.75,-217.83 387.75,-221.79 383.79,-225.75 379.83,-225.75"/>
<text xml:space="preserve" text-anchor="middle" x="299.12" y="-208.45" font-family="Arial" font-size="14.00" fill="#cfffac">pages/CoinDetailsPage.jsx</text>
</g>
<!-- App.jsx&#45;&gt;pages/CoinDetailsPage.jsx -->
<g id="edge5" class="edge">
<title>App.jsx&#45;&gt;pages/CoinDetailsPage.jsx</title>
<path fill="none" stroke="#757575" d="M168.86,-246.45C188.29,-241.55 214.43,-234.96 238.11,-229"/>
<polygon fill="#757575" stroke="#757575" points="238.84,-232.42 247.68,-226.59 237.13,-225.64 238.84,-232.42"/>
</g>
<!-- pages/CoinsPage.jsx -->
<g id="node7" class="node">
<title>pages/CoinsPage.jsx</title>
<path fill="none" stroke="#cfffac" d="M362.58,-183.75C362.58,-183.75 235.67,-183.75 235.67,-183.75 231.71,-183.75 227.75,-179.79 227.75,-175.83 227.75,-175.83 227.75,-167.92 227.75,-167.92 227.75,-163.96 231.71,-160 235.67,-160 235.67,-160 362.58,-160 362.58,-160 366.54,-160 370.5,-163.96 370.5,-167.92 370.5,-167.92 370.5,-175.83 370.5,-175.83 370.5,-179.79 366.54,-183.75 362.58,-183.75"/>
<text xml:space="preserve" text-anchor="middle" x="299.12" y="-166.45" font-family="Arial" font-size="14.00" fill="#cfffac">pages/CoinsPage.jsx</text>
</g>
<!-- App.jsx&#45;&gt;pages/CoinsPage.jsx -->
<g id="edge6" class="edge">
<title>App.jsx&#45;&gt;pages/CoinsPage.jsx</title>
<path fill="none" stroke="#757575" d="M150.18,-241.61C163.14,-227.69 186.16,-205.3 210.5,-192.88 213.95,-191.11 217.55,-189.5 221.24,-188.01"/>
<polygon fill="#757575" stroke="#757575" points="222.2,-191.39 230.41,-184.69 219.81,-184.81 222.2,-191.39"/>
</g>
<!-- pages/DashboardPage.jsx -->
<g id="node8" class="node">
<title>pages/DashboardPage.jsx</title>
<path fill="none" stroke="#c6c5fe" d="M603.58,-259.75C603.58,-259.75 445.17,-259.75 445.17,-259.75 441.21,-259.75 437.25,-255.79 437.25,-251.83 437.25,-251.83 437.25,-243.92 437.25,-243.92 437.25,-239.96 441.21,-236 445.17,-236 445.17,-236 603.58,-236 603.58,-236 607.54,-236 611.5,-239.96 611.5,-243.92 611.5,-243.92 611.5,-251.83 611.5,-251.83 611.5,-255.79 607.54,-259.75 603.58,-259.75"/>
<text xml:space="preserve" text-anchor="middle" x="524.38" y="-242.45" font-family="Arial" font-size="14.00" fill="#c6c5fe">pages/DashboardPage.jsx</text>
</g>
<!-- App.jsx&#45;&gt;pages/DashboardPage.jsx -->
<g id="edge7" class="edge">
<title>App.jsx&#45;&gt;pages/DashboardPage.jsx</title>
<path fill="none" stroke="#757575" d="M168.87,-253.41C223.02,-252.57 340.51,-250.73 425.42,-249.41"/>
<polygon fill="#757575" stroke="#757575" points="425.45,-252.91 435.4,-249.25 425.34,-245.91 425.45,-252.91"/>
</g>
<!-- pages/LoginPage.jsx -->
<g id="node9" class="node">
<title>pages/LoginPage.jsx</title>
<path fill="none" stroke="#c6c5fe" d="M587.08,-301.75C587.08,-301.75 461.67,-301.75 461.67,-301.75 457.71,-301.75 453.75,-297.79 453.75,-293.83 453.75,-293.83 453.75,-285.92 453.75,-285.92 453.75,-281.96 457.71,-278 461.67,-278 461.67,-278 587.08,-278 587.08,-278 591.04,-278 595,-281.96 595,-285.92 595,-285.92 595,-293.83 595,-293.83 595,-297.79 591.04,-301.75 587.08,-301.75"/>
<text xml:space="preserve" text-anchor="middle" x="524.38" y="-284.45" font-family="Arial" font-size="14.00" fill="#c6c5fe">pages/LoginPage.jsx</text>
</g>
<!-- App.jsx&#45;&gt;pages/LoginPage.jsx -->
<g id="edge8" class="edge">
<title>App.jsx&#45;&gt;pages/LoginPage.jsx</title>
<path fill="none" stroke="#757575" d="M168.7,-259.44C181.5,-261.71 196.7,-264.19 210.5,-265.88 288.77,-275.46 378.55,-281.88 441.8,-285.65"/>
<polygon fill="#757575" stroke="#757575" points="441.6,-289.14 451.79,-286.23 442.01,-282.15 441.6,-289.14"/>
</g>
<!-- pages/NewsPage.jsx -->
<g id="node10" class="node">
<title>pages/NewsPage.jsx</title>
<path fill="none" stroke="#cfffac" d="M362.21,-461.75C362.21,-461.75 236.04,-461.75 236.04,-461.75 232.08,-461.75 228.12,-457.79 228.12,-453.83 228.12,-453.83 228.12,-445.92 228.12,-445.92 228.12,-441.96 232.08,-438 236.04,-438 236.04,-438 362.21,-438 362.21,-438 366.17,-438 370.12,-441.96 370.12,-445.92 370.12,-445.92 370.12,-453.83 370.12,-453.83 370.12,-457.79 366.17,-461.75 362.21,-461.75"/>
<text xml:space="preserve" text-anchor="middle" x="299.12" y="-444.45" font-family="Arial" font-size="14.00" fill="#cfffac">pages/NewsPage.jsx</text>
</g>
<!-- App.jsx&#45;&gt;pages/NewsPage.jsx -->
<g id="edge9" class="edge">
<title>App.jsx&#45;&gt;pages/NewsPage.jsx</title>
<path fill="none" stroke="#757575" d="M140.54,-265.79C144.29,-297.52 159.02,-384.62 210.5,-428.88 212.73,-430.79 215.11,-432.54 217.6,-434.14"/>
<polygon fill="#757575" stroke="#757575" points="215.88,-437.19 226.35,-438.84 219.2,-431.02 215.88,-437.19"/>
</g>
<!-- pages/WatchlistPage.jsx -->
<g id="node11" class="node">
<title>pages/WatchlistPage.jsx</title>
<path fill="none" stroke="#cfffac" d="M372.71,-419.75C372.71,-419.75 225.54,-419.75 225.54,-419.75 221.58,-419.75 217.62,-415.79 217.62,-411.83 217.62,-411.83 217.62,-403.92 217.62,-403.92 217.62,-399.96 221.58,-396 225.54,-396 225.54,-396 372.71,-396 372.71,-396 376.67,-396 380.62,-399.96 380.62,-403.92 380.62,-403.92 380.62,-411.83 380.62,-411.83 380.62,-415.79 376.67,-419.75 372.71,-419.75"/>
<text xml:space="preserve" text-anchor="middle" x="299.12" y="-402.45" font-family="Arial" font-size="14.00" fill="#cfffac">pages/WatchlistPage.jsx</text>
</g>
<!-- App.jsx&#45;&gt;pages/WatchlistPage.jsx -->
<g id="edge10" class="edge">
<title>App.jsx&#45;&gt;pages/WatchlistPage.jsx</title>
<path fill="none" stroke="#757575" d="M142.74,-266.14C150.37,-291.63 171.43,-350.54 210.5,-381.88 214.76,-385.29 219.46,-388.26 224.41,-390.84"/>
<polygon fill="#757575" stroke="#757575" points="222.91,-394.01 233.46,-394.98 225.82,-387.64 222.91,-394.01"/>
</g>
<!-- component/ProtectedRoute.jsx&#45;&gt;context/AuthContext.jsx -->
<g id="edge14" class="edge">
<title>component/ProtectedRoute.jsx&#45;&gt;context/AuthContext.jsx</title>
<path fill="none" stroke="#757575" d="M600.54,-218.2C626.5,-222.46 655.79,-227.27 682.6,-231.66"/>
<polygon fill="#757575" stroke="#757575" points="681.99,-235.11 692.42,-233.27 683.12,-228.2 681.99,-235.11"/>
</g>
<!-- component/Header.jsx -->
<g id="node14" class="node">
<title>component/Header.jsx</title>
<path fill="none" stroke="#c6c5fe" d="M591.96,-105.75C591.96,-105.75 456.79,-105.75 456.79,-105.75 452.83,-105.75 448.88,-101.79 448.88,-97.83 448.88,-97.83 448.88,-89.92 448.88,-89.92 448.88,-85.96 452.83,-82 456.79,-82 456.79,-82 591.96,-82 591.96,-82 595.92,-82 599.88,-85.96 599.88,-89.92 599.88,-89.92 599.88,-97.83 599.88,-97.83 599.88,-101.79 595.92,-105.75 591.96,-105.75"/>
<text xml:space="preserve" text-anchor="middle" x="524.38" y="-88.45" font-family="Arial" font-size="14.00" fill="#c6c5fe">component/Header.jsx</text>
</g>
<!-- layout/AppLayout.jsx&#45;&gt;component/Header.jsx -->
<g id="edge20" class="edge">
<title>layout/AppLayout.jsx&#45;&gt;component/Header.jsx</title>
<path fill="none" stroke="#757575" d="M369.84,-92.5C391.09,-92.69 414.7,-92.9 436.91,-93.1"/>
<polygon fill="#757575" stroke="#757575" points="436.84,-96.6 446.87,-93.19 436.9,-89.6 436.84,-96.6"/>
</g>
<!-- component/Sidebar.jsx -->
<g id="node15" class="node">
<title>component/Sidebar.jsx</title>
<path fill="none" stroke="#c6c5fe" d="M593.08,-175.75C593.08,-175.75 455.67,-175.75 455.67,-175.75 451.71,-175.75 447.75,-171.79 447.75,-167.83 447.75,-167.83 447.75,-159.92 447.75,-159.92 447.75,-155.96 451.71,-152 455.67,-152 455.67,-152 593.08,-152 593.08,-152 597.04,-152 601,-155.96 601,-159.92 601,-159.92 601,-167.83 601,-167.83 601,-171.79 597.04,-175.75 593.08,-175.75"/>
<text xml:space="preserve" text-anchor="middle" x="524.38" y="-158.45" font-family="Arial" font-size="14.00" fill="#c6c5fe">component/Sidebar.jsx</text>
</g>
<!-- layout/AppLayout.jsx&#45;&gt;component/Sidebar.jsx -->
<g id="edge21" class="edge">
<title>layout/AppLayout.jsx&#45;&gt;component/Sidebar.jsx</title>
<path fill="none" stroke="#757575" d="M343.01,-104.24C357.28,-108.45 373.23,-113.26 387.75,-117.88 417.81,-127.43 451.39,-138.81 477.61,-147.86"/>
<polygon fill="#757575" stroke="#757575" points="476.35,-151.13 486.94,-151.09 478.64,-144.51 476.35,-151.13"/>
</g>
<!-- pages/DashboardPage.jsx&#45;&gt;context/AuthContext.jsx -->
<g id="edge25" class="edge">
<title>pages/DashboardPage.jsx&#45;&gt;context/AuthContext.jsx</title>
<path fill="none" stroke="#757575" d="M611.7,-247.17C633.75,-246.99 657.51,-246.79 679.72,-246.61"/>
<polygon fill="#757575" stroke="#757575" points="679.69,-250.11 689.66,-246.53 679.63,-243.11 679.69,-250.11"/>
</g>
<!-- pages/LoginPage.jsx&#45;&gt;context/AuthContext.jsx -->
<g id="edge26" class="edge">
<title>pages/LoginPage.jsx&#45;&gt;context/AuthContext.jsx</title>
<path fill="none" stroke="#757575" d="M593.96,-277.5C623.69,-272.14 658.71,-265.82 689.59,-260.25"/>
<polygon fill="#757575" stroke="#757575" points="690.05,-263.72 699.27,-258.5 688.81,-256.83 690.05,-263.72"/>
</g>
<!-- app/store.js -->
<g id="node12" class="node">
<title>app/store.js</title>
<path fill="none" stroke="#c6c5fe" d="M559.33,-63.75C559.33,-63.75 489.42,-63.75 489.42,-63.75 485.46,-63.75 481.5,-59.79 481.5,-55.83 481.5,-55.83 481.5,-47.92 481.5,-47.92 481.5,-43.96 485.46,-40 489.42,-40 489.42,-40 559.33,-40 559.33,-40 563.29,-40 567.25,-43.96 567.25,-47.92 567.25,-47.92 567.25,-55.83 567.25,-55.83 567.25,-59.79 563.29,-63.75 559.33,-63.75"/>
<text xml:space="preserve" text-anchor="middle" x="524.38" y="-46.45" font-family="Arial" font-size="14.00" fill="#c6c5fe">app/store.js</text>
</g>
<!-- features/currency/currencySlice.js -->
<g id="node13" class="node">
<title>features/currency/currencySlice.js</title>
<path fill="none" stroke="#cfffac" d="M871.58,-77.75C871.58,-77.75 668.92,-77.75 668.92,-77.75 664.96,-77.75 661,-73.79 661,-69.83 661,-69.83 661,-61.92 661,-61.92 661,-57.96 664.96,-54 668.92,-54 668.92,-54 871.58,-54 871.58,-54 875.54,-54 879.5,-57.96 879.5,-61.92 879.5,-61.92 879.5,-69.83 879.5,-69.83 879.5,-73.79 875.54,-77.75 871.58,-77.75"/>
<text xml:space="preserve" text-anchor="middle" x="770.25" y="-60.45" font-family="Arial" font-size="14.00" fill="#cfffac">features/currency/currencySlice.js</text>
</g>
<!-- app/store.js&#45;&gt;features/currency/currencySlice.js -->
<g id="edge11" class="edge">
<title>app/store.js&#45;&gt;features/currency/currencySlice.js</title>
<path fill="none" stroke="#757575" d="M567.58,-54.3C590.48,-55.61 620.08,-57.31 649.5,-59"/>
<polygon fill="#757575" stroke="#757575" points="649.06,-62.48 659.24,-59.56 649.46,-55.49 649.06,-62.48"/>
</g>
<!-- component/Header.jsx&#45;&gt;context/AuthContext.jsx -->
<g id="edge12" class="edge">
<title>component/Header.jsx&#45;&gt;context/AuthContext.jsx</title>
<path fill="none" stroke="#757575" d="M558.77,-106.17C579.12,-114.63 604.99,-127.17 625,-142.88 644.61,-158.26 641.78,-170.01 661,-185.88 682.08,-203.27 708.93,-218.19 730.62,-228.8"/>
<polygon fill="#757575" stroke="#757575" points="728.9,-231.86 739.44,-233.01 731.92,-225.54 728.9,-231.86"/>
</g>
<!-- component/Header.jsx&#45;&gt;features/currency/currencySlice.js -->
<g id="edge13" class="edge">
<title>component/Header.jsx&#45;&gt;features/currency/currencySlice.js</title>
<path fill="none" stroke="#757575" d="M600.2,-85.28C616.17,-83.45 633.41,-81.47 650.56,-79.5"/>
<polygon fill="#757575" stroke="#757575" points="650.76,-83 660.3,-78.38 649.97,-76.05 650.76,-83"/>
</g>
<!-- component/Sidebar.jsx&#45;&gt;context/AuthContext.jsx -->
<g id="edge17" class="edge">
<title>component/Sidebar.jsx&#45;&gt;context/AuthContext.jsx</title>
<path fill="none" stroke="#757575" d="M601.44,-175.31C609.62,-177.88 617.64,-181.02 625,-184.88 644.5,-195.08 641.69,-208.31 661,-218.88 669.03,-223.27 677.79,-226.96 686.73,-230.06"/>
<polygon fill="#757575" stroke="#757575" points="685.66,-233.39 696.25,-233.1 687.79,-226.73 685.66,-233.39"/>
</g>
<!-- component/Sidebar.jsx&#45;&gt;context/ThemeContext.jsx -->
<g id="edge18" class="edge">
<title>component/Sidebar.jsx&#45;&gt;context/ThemeContext.jsx</title>
<path fill="none" stroke="#757575" d="M592.79,-176.24C614.5,-179.84 638.71,-183.45 661,-185.88 742.67,-194.76 835.86,-199.6 903.98,-202.16"/>
<polygon fill="#757575" stroke="#757575" points="903.48,-205.65 913.6,-202.52 903.74,-198.65 903.48,-205.65"/>
</g>
<!-- component/SidebarItem.jsx -->
<g id="node16" class="node">
<title>component/SidebarItem.jsx</title>
<path fill="none" stroke="#cfffac" d="M852.83,-176.75C852.83,-176.75 687.67,-176.75 687.67,-176.75 683.71,-176.75 679.75,-172.79 679.75,-168.83 679.75,-168.83 679.75,-160.92 679.75,-160.92 679.75,-156.96 683.71,-153 687.67,-153 687.67,-153 852.83,-153 852.83,-153 856.79,-153 860.75,-156.96 860.75,-160.92 860.75,-160.92 860.75,-168.83 860.75,-168.83 860.75,-172.79 856.79,-176.75 852.83,-176.75"/>
<text xml:space="preserve" text-anchor="middle" x="770.25" y="-159.45" font-family="Arial" font-size="14.00" fill="#cfffac">component/SidebarItem.jsx</text>
</g>
<!-- component/Sidebar.jsx&#45;&gt;component/SidebarItem.jsx -->
<g id="edge15" class="edge">
<title>component/Sidebar.jsx&#45;&gt;component/SidebarItem.jsx</title>
<path fill="none" stroke="#757575" d="M601.2,-164.19C622.37,-164.27 645.72,-164.37 668.1,-164.46"/>
<polygon fill="#757575" stroke="#757575" points="667.82,-167.96 677.84,-164.5 667.85,-160.96 667.82,-167.96"/>
</g>
<!-- component/ThemeToggle.jsx -->
<g id="node17" class="node">
<title>component/ThemeToggle.jsx</title>
<path fill="none" stroke="#c6c5fe" d="M857.33,-134.75C857.33,-134.75 683.17,-134.75 683.17,-134.75 679.21,-134.75 675.25,-130.79 675.25,-126.83 675.25,-126.83 675.25,-118.92 675.25,-118.92 675.25,-114.96 679.21,-111 683.17,-111 683.17,-111 857.33,-111 857.33,-111 861.29,-111 865.25,-114.96 865.25,-118.92 865.25,-118.92 865.25,-126.83 865.25,-126.83 865.25,-130.79 861.29,-134.75 857.33,-134.75"/>
<text xml:space="preserve" text-anchor="middle" x="770.25" y="-117.45" font-family="Arial" font-size="14.00" fill="#c6c5fe">component/ThemeToggle.jsx</text>
</g>
<!-- component/Sidebar.jsx&#45;&gt;component/ThemeToggle.jsx -->
<g id="edge16" class="edge">
<title>component/Sidebar.jsx&#45;&gt;component/ThemeToggle.jsx</title>
<path fill="none" stroke="#757575" d="M598.88,-151.52C625.87,-146.98 656.65,-141.81 684.55,-137.11"/>
<polygon fill="#757575" stroke="#757575" points="685.13,-140.57 694.41,-135.46 683.96,-133.66 685.13,-140.57"/>
</g>
<!-- component/ThemeToggle.jsx&#45;&gt;context/ThemeContext.jsx -->
<g id="edge19" class="edge">
<title>component/ThemeToggle.jsx&#45;&gt;context/ThemeContext.jsx</title>
<path fill="none" stroke="#757575" d="M848.81,-135.23C859.24,-137.67 869.72,-140.54 879.5,-143.88 912.17,-155.01 947.15,-173.35 971.12,-187.02"/>
<polygon fill="#757575" stroke="#757575" points="969.28,-190 979.69,-191.98 972.79,-183.94 969.28,-190"/>
</g>
<!-- index.css -->
<g id="node18" class="node">
<title>index.css</title>
<path fill="none" stroke="#cfffac" d="M166.58,-23.75C166.58,-23.75 110.17,-23.75 110.17,-23.75 106.21,-23.75 102.25,-19.79 102.25,-15.83 102.25,-15.83 102.25,-7.92 102.25,-7.92 102.25,-3.96 106.21,0 110.17,0 110.17,0 166.58,0 166.58,0 170.54,0 174.5,-3.96 174.5,-7.92 174.5,-7.92 174.5,-15.83 174.5,-15.83 174.5,-19.79 170.54,-23.75 166.58,-23.75"/>
<text xml:space="preserve" text-anchor="middle" x="138.38" y="-6.45" font-family="Arial" font-size="14.00" fill="#cfffac">index.css</text>
</g>
<!-- main.jsx -->
<g id="node19" class="node">
<title>main.jsx</title>
<path fill="none" stroke="#c6c5fe" d="M58.33,-63.75C58.33,-63.75 7.92,-63.75 7.92,-63.75 3.96,-63.75 0,-59.79 0,-55.83 0,-55.83 0,-47.92 0,-47.92 0,-43.96 3.96,-40 7.92,-40 7.92,-40 58.33,-40 58.33,-40 62.29,-40 66.25,-43.96 66.25,-47.92 66.25,-47.92 66.25,-55.83 66.25,-55.83 66.25,-59.79 62.29,-63.75 58.33,-63.75"/>
<text xml:space="preserve" text-anchor="middle" x="33.12" y="-46.45" font-family="Arial" font-size="14.00" fill="#c6c5fe">main.jsx</text>
</g>
<!-- main.jsx&#45;&gt;App.jsx -->
<g id="edge22" class="edge">
<title>main.jsx&#45;&gt;App.jsx</title>
<path fill="none" stroke="#757575" d="M40.43,-64.21C57.39,-97.39 104.18,-188.94 125.96,-231.53"/>
<polygon fill="#757575" stroke="#757575" points="122.8,-233.05 130.47,-240.36 129.03,-229.86 122.8,-233.05"/>
</g>
<!-- main.jsx&#45;&gt;app/store.js -->
<g id="edge23" class="edge">
<title>main.jsx&#45;&gt;app/store.js</title>
<path fill="none" stroke="#757575" d="M66.6,-51.88C149.22,-51.88 367.99,-51.88 469.83,-51.88"/>
<polygon fill="#757575" stroke="#757575" points="469.55,-55.38 479.55,-51.88 469.55,-48.38 469.55,-55.38"/>
</g>
<!-- main.jsx&#45;&gt;index.css -->
<g id="edge24" class="edge">
<title>main.jsx&#45;&gt;index.css</title>
<path fill="none" stroke="#757575" d="M65.95,-39.55C75.07,-36.01 85.17,-32.1 94.83,-28.36"/>
<polygon fill="#757575" stroke="#757575" points="96.01,-31.65 104.07,-24.78 93.48,-25.13 96.01,-31.65"/>
</g>
</g>
</svg>
