<svg xmlns="http://www.w3.org/2000/svg" width="2400" height="2740" viewBox="0 0 2400 2740">
  <defs>
    <style>
  .title { font-family: Arial, sans-serif; font-weight: 800; fill: #212529; }
  .subtitle { font-family: Arial, sans-serif; font-weight: 400; fill: #495057; }
  .panel-title { font-family: Arial, sans-serif; font-weight: 800; fill: #212529; }
  .node-title { font-family: Arial, sans-serif; font-weight: 750; fill: #212529; }
  .node-line { font-family: Arial, sans-serif; font-weight: 500; fill: #343a40; }
  .edge-label { font-family: Arial, sans-serif; font-size: 15px; font-weight: 700; }
  .legend { font-family: Arial, sans-serif; font-size: 17px; font-weight: 600; fill: #343a40; }
</style>
    <marker id="arrow-structure" markerWidth="12" markerHeight="12" refX="10" refY="5" orient="auto" markerUnits="strokeWidth">
      <path d="M0,0 L10,5 L0,10 z" fill="#343a40" />
    </marker>
    <marker id="arrow-props" markerWidth="12" markerHeight="12" refX="10" refY="5" orient="auto" markerUnits="strokeWidth">
      <path d="M0,0 L10,5 L0,10 z" fill="#1971c2" />
    </marker>
    <marker id="arrow-context" markerWidth="12" markerHeight="12" refX="10" refY="5" orient="auto" markerUnits="strokeWidth">
      <path d="M0,0 L10,5 L0,10 z" fill="#d9480f" />
    </marker>
    <marker id="arrow-redux" markerWidth="12" markerHeight="12" refX="10" refY="5" orient="auto" markerUnits="strokeWidth">
      <path d="M0,0 L10,5 L0,10 z" fill="#2b8a3e" />
    </marker>
    <marker id="arrow-storage" markerWidth="12" markerHeight="12" refX="10" refY="5" orient="auto" markerUnits="strokeWidth">
      <path d="M0,0 L10,5 L0,10 z" fill="#868e96" />
    </marker>
    <marker id="arrow-router" markerWidth="12" markerHeight="12" refX="10" refY="5" orient="auto" markerUnits="strokeWidth">
      <path d="M0,0 L10,5 L0,10 z" fill="#e67700" />
    </marker>
    <marker id="arrow-state" markerWidth="12" markerHeight="12" refX="10" refY="5" orient="auto" markerUnits="strokeWidth">
      <path d="M0,0 L10,5 L0,10 z" fill="#0b7285" />
    </marker>
    <marker id="arrow-api" markerWidth="12" markerHeight="12" refX="10" refY="5" orient="auto" markerUnits="strokeWidth">
      <path d="M0,0 L10,5 L0,10 z" fill="#c92a2a" />
    </marker>
  </defs>
  <rect width="100%" height="100%" fill="#f8f9fa" />
  <text x="70" y="38" class="title" font-size="30">CoinLume — Current Architecture Map</text>
  <rect x="40" y="40" width="2320" height="610" rx="26" fill="#ffffff" stroke="#ced4da" stroke-width="3" />
  <text x="68" y="82" class="panel-title" font-size="26">1. App start, providers, and routing</text>
  <text x="68" y="110" class="subtitle" font-size="17">How the application starts and how URLs choose pages</text>
  <rect x="40" y="690" width="2320" height="500" rx="26" fill="#ffffff" stroke="#ced4da" stroke-width="3" />
  <text x="68" y="732" class="panel-title" font-size="26">2. Layout and component connections</text>
  <text x="68" y="760" class="subtitle" font-size="17">What AppLayout renders, which state it owns, and which props move downward</text>
  <rect x="40" y="1230" width="2320" height="650" rx="26" fill="#ffffff" stroke="#ced4da" stroke-width="3" />
  <text x="68" y="1272" class="panel-title" font-size="26">3. Shared state, consumers, and browser storage</text>
  <text x="68" y="1300" class="subtitle" font-size="17">Which components read each shared value and where persistence happens</text>
  <polyline points="300,190.0 365,134.0" fill="none" stroke="#343a40" stroke-width="3" stroke-linecap="round" stroke-linejoin="round" marker-end="url(#arrow-structure)" />
  <rect x="296.5" y="148.0" width="72" height="28" rx="8" fill="#ffffff" fill-opacity="0.94" />
  <text x="332.5" y="167.0" text-anchor="middle" class="edge-label" fill="#343a40">wraps</text>
  <polyline points="480.0,173 480.0,210" fill="none" stroke="#343a40" stroke-width="3" stroke-linecap="round" stroke-linejoin="round" marker-end="url(#arrow-structure)" />
  <rect x="436.8" y="177.5" width="86.4" height="28" rx="8" fill="#ffffff" fill-opacity="0.94" />
  <text x="480.0" y="196.5" text-anchor="middle" class="edge-label" fill="#343a40">contains</text>
  <polyline points="595,249.0 635,249 635,140 675,140.0" fill="none" stroke="#343a40" stroke-width="3" stroke-linecap="round" stroke-linejoin="round" marker-end="url(#arrow-structure)" />
  <rect x="595.95" y="180.5" width="78.10000000000001" height="28" rx="8" fill="#ffffff" fill-opacity="0.94" />
  <text x="635.0" y="199.5" text-anchor="middle" class="edge-label" fill="#343a40">renders</text>
  <polyline points="595,249.0 675,249.0" fill="none" stroke="#2b8a3e" stroke-width="3" stroke-linecap="round" stroke-linejoin="round" marker-end="url(#arrow-redux)" />
  <rect x="599.0" y="235.0" width="72" height="28" rx="8" fill="#ffffff" fill-opacity="0.94" />
  <text x="635.0" y="254.0" text-anchor="middle" class="edge-label" fill="#2b8a3e">uses</text>
  <polyline points="885,249.0 955,249.0" fill="none" stroke="#2b8a3e" stroke-width="3" stroke-linecap="round" stroke-linejoin="round" marker-end="url(#arrow-redux)" />
  <rect x="839.45" y="235.0" width="161.10000000000002" height="28" rx="8" fill="#ffffff" fill-opacity="0.94" />
  <text x="920.0" y="254.0" text-anchor="middle" class="edge-label" fill="#2b8a3e">registers reducer</text>
  <polyline points="885,140.0 955,119.0" fill="none" stroke="#343a40" stroke-width="3" stroke-linecap="round" stroke-linejoin="round" marker-end="url(#arrow-structure)" />
  <rect x="884.0" y="115.5" width="72" height="28" rx="8" fill="#ffffff" fill-opacity="0.94" />
  <text x="920.0" y="134.5" text-anchor="middle" class="edge-label" fill="#343a40">wraps</text>
  <polyline points="1175,119.0 1235,119.0" fill="none" stroke="#343a40" stroke-width="3" stroke-linecap="round" stroke-linejoin="round" marker-end="url(#arrow-structure)" />
  <rect x="1169.0" y="105.0" width="72" height="28" rx="8" fill="#ffffff" fill-opacity="0.94" />
  <text x="1205.0" y="124.0" text-anchor="middle" class="edge-label" fill="#343a40">wraps</text>
  <polyline points="1455,119.0 1515,119.0" fill="none" stroke="#343a40" stroke-width="3" stroke-linecap="round" stroke-linejoin="round" marker-end="url(#arrow-structure)" />
  <rect x="1449.0" y="105.0" width="72" height="28" rx="8" fill="#ffffff" fill-opacity="0.94" />
  <text x="1485.0" y="124.0" text-anchor="middle" class="edge-label" fill="#343a40">wraps</text>
  <polyline points="1605.0,158 1605,180 1595,180 1595.0,205" fill="none" stroke="#e67700" stroke-width="3" stroke-linecap="round" stroke-linejoin="round" marker-end="url(#arrow-router)" />
  <rect x="1559.0" y="178.5" width="72" height="28" rx="8" fill="#ffffff" fill-opacity="0.94" />
  <text x="1595.0" y="197.5" text-anchor="middle" class="edge-label" fill="#e67700">route</text>
  <polyline points="1695,119.0 1830,119 1878,170 1877.5,205" fill="none" stroke="#e67700" stroke-width="3" stroke-linecap="round" stroke-linejoin="round" marker-end="url(#arrow-router)" />
  <rect x="1726.5" y="105.0" width="72" height="28" rx="8" fill="#ffffff" fill-opacity="0.94" />
  <text x="1762.5" y="124.0" text-anchor="middle" class="edge-label" fill="#e67700">route</text>
  <polyline points="1605.0,158 1605,310 1595,310 1595.0,335" fill="none" stroke="#e67700" stroke-width="3" stroke-linecap="round" stroke-linejoin="round" marker-end="url(#arrow-router)" />
  <rect x="1569.0" y="220.0" width="72" height="28" rx="8" fill="#ffffff" fill-opacity="0.94" />
  <text x="1605.0" y="239.0" text-anchor="middle" class="edge-label" fill="#e67700">route</text>
  <polyline points="1710,382.5 1760,382.5" fill="none" stroke="#343a40" stroke-width="3" stroke-linecap="round" stroke-linejoin="round" marker-end="url(#arrow-structure)" />
  <rect x="1691.8" y="368.5" width="86.4" height="28" rx="8" fill="#ffffff" fill-opacity="0.94" />
  <text x="1735.0" y="387.5" text-anchor="middle" class="edge-label" fill="#343a40">children</text>
  <polyline points="1877.5,430 1877,465 1190.0,465 1190.0,500" fill="none" stroke="#e67700" stroke-width="3" stroke-linecap="round" stroke-linejoin="round" marker-end="url(#arrow-router)" />
  <rect x="1428.05" y="451.0" width="210.9" height="28" rx="8" fill="#ffffff" fill-opacity="0.94" />
  <text x="1533.5" y="470.0" text-anchor="middle" class="edge-label" fill="#e67700">nested route via Outlet</text>
  <polyline points="1877.5,430 1877,465 1450.0,465 1450.0,500" fill="none" stroke="#e67700" stroke-width="3" stroke-linecap="round" stroke-linejoin="round" marker-end="url(#arrow-router)" />
  <rect x="1558.05" y="451.0" width="210.9" height="28" rx="8" fill="#ffffff" fill-opacity="0.94" />
  <text x="1663.5" y="470.0" text-anchor="middle" class="edge-label" fill="#e67700">nested route via Outlet</text>
  <polyline points="1877.5,430 1877,465 1710.0,465 1710.0,500" fill="none" stroke="#e67700" stroke-width="3" stroke-linecap="round" stroke-linejoin="round" marker-end="url(#arrow-router)" />
  <rect x="1688.05" y="451.0" width="210.9" height="28" rx="8" fill="#ffffff" fill-opacity="0.94" />
  <text x="1793.5" y="470.0" text-anchor="middle" class="edge-label" fill="#e67700">nested route via Outlet</text>
  <polyline points="1877.5,430 1877,465 1970.0,465 1970.0,500" fill="none" stroke="#e67700" stroke-width="3" stroke-linecap="round" stroke-linejoin="round" marker-end="url(#arrow-router)" />
  <rect x="1818.05" y="451.0" width="210.9" height="28" rx="8" fill="#ffffff" fill-opacity="0.94" />
  <text x="1923.5" y="470.0" text-anchor="middle" class="edge-label" fill="#e67700">nested route via Outlet</text>
  <polyline points="1877.5,430 1877,465 2230.0,465 2230.0,500" fill="none" stroke="#e67700" stroke-width="3" stroke-linecap="round" stroke-linejoin="round" marker-end="url(#arrow-router)" />
  <rect x="1948.05" y="451.0" width="210.9" height="28" rx="8" fill="#ffffff" fill-opacity="0.94" />
  <text x="2053.5" y="470.0" text-anchor="middle" class="edge-label" fill="#e67700">nested route via Outlet</text>
  <polyline points="222.5,980 222.5,910" fill="none" stroke="#0b7285" stroke-width="3" stroke-linecap="round" stroke-linejoin="round" marker-end="url(#arrow-state)" />
  <rect x="129.5" y="931.0" width="186.0" height="28" rx="8" fill="#ffffff" fill-opacity="0.94" />
  <text x="222.5" y="950.0" text-anchor="middle" class="edge-label" fill="#0b7285">state value + setter</text>
  <polyline points="345,855.0 470,810.0" fill="none" stroke="#1971c2" stroke-width="3" stroke-linecap="round" stroke-linejoin="round" marker-end="url(#arrow-props)" />
  <rect x="371.5" y="818.5" width="72" height="28" rx="8" fill="#ffffff" fill-opacity="0.94" />
  <text x="407.5" y="837.5" text-anchor="middle" class="edge-label" fill="#1971c2">props</text>
  <polyline points="345,855.0 405,855 405,975 470,975.0" fill="none" stroke="#343a40" stroke-width="3" stroke-linecap="round" stroke-linejoin="round" marker-end="url(#arrow-structure)" />
  <rect x="365.95" y="901.0" width="78.10000000000001" height="28" rx="8" fill="#ffffff" fill-opacity="0.94" />
  <text x="405.0" y="920.0" text-anchor="middle" class="edge-label" fill="#343a40">renders</text>
  <polyline points="345,855.0 390,855 390,1102 470,1102.5" fill="none" stroke="#343a40" stroke-width="3" stroke-linecap="round" stroke-linejoin="round" marker-end="url(#arrow-structure)" />
  <rect x="350.95" y="964.5" width="78.10000000000001" height="28" rx="8" fill="#ffffff" fill-opacity="0.94" />
  <text x="390.0" y="983.5" text-anchor="middle" class="edge-label" fill="#343a40">renders</text>
  <polyline points="715,810.0 880,790.0" fill="none" stroke="#1971c2" stroke-width="3" stroke-linecap="round" stroke-linejoin="round" marker-end="url(#arrow-props)" />
  <rect x="761.5" y="786.0" width="72" height="28" rx="8" fill="#ffffff" fill-opacity="0.94" />
  <text x="797.5" y="805.0" text-anchor="middle" class="edge-label" fill="#1971c2">props</text>
  <polyline points="715,810.0 795,810 795,947 880,947.5" fill="none" stroke="#1971c2" stroke-width="3" stroke-linecap="round" stroke-linejoin="round" marker-end="url(#arrow-props)" />
  <rect x="706.15" y="864.5" width="177.70000000000002" height="28" rx="8" fill="#ffffff" fill-opacity="0.94" />
  <text x="795.0" y="883.5" text-anchor="middle" class="edge-label" fill="#1971c2">prop: isSidebarOpen</text>
  <polyline points="1125,790.0 1320,820.0" fill="none" stroke="#e67700" stroke-width="3" stroke-linecap="round" stroke-linejoin="round" marker-end="url(#arrow-router)" />
  <rect x="1183.45" y="791.0" width="78.10000000000001" height="28" rx="8" fill="#ffffff" fill-opacity="0.94" />
  <text x="1222.5" y="810.0" text-anchor="middle" class="edge-label" fill="#e67700">NavLink</text>
  <polyline points="592.5,755 750,705 1250,705 1250,820 1320,820.0" fill="none" stroke="#e67700" stroke-width="3" stroke-linecap="round" stroke-linejoin="round" marker-end="url(#arrow-router)" />
  <rect x="915.3" y="691.0" width="169.4" height="28" rx="8" fill="#ffffff" fill-opacity="0.94" />
  <text x="1000.0" y="710.0" text-anchor="middle" class="edge-label" fill="#e67700">navigate('/login')</text>
  <polyline points="715,975.0 1220,975 1470,940 1470.0,895" fill="none" stroke="#e67700" stroke-width="3" stroke-linecap="round" stroke-linejoin="round" marker-end="url(#arrow-router)" />
  <rect x="911.85" y="961.0" width="111.30000000000001" height="28" rx="8" fill="#ffffff" fill-opacity="0.94" />
  <text x="967.5" y="980.0" text-anchor="middle" class="edge-label" fill="#e67700">useLocation</text>
  <polyline points="715,1102.5 1320,1062.5" fill="none" stroke="#e67700" stroke-width="3" stroke-linecap="round" stroke-linejoin="round" marker-end="url(#arrow-router)" />
  <rect x="924.5" y="1068.5" width="186.0" height="28" rx="8" fill="#ffffff" fill-opacity="0.94" />
  <text x="1017.5" y="1087.5" text-anchor="middle" class="edge-label" fill="#e67700">renders matched page</text>
  <polyline points="715,810.0 1500,810 1500,835 1780,835.0" fill="none" stroke="#1971c2" stroke-width="3" stroke-linecap="round" stroke-linejoin="round" marker-end="url(#arrow-props)" />
  <rect x="1064.3" y="796.0" width="86.4" height="28" rx="8" fill="#ffffff" fill-opacity="0.94" />
  <text x="1107.5" y="815.0" text-anchor="middle" class="edge-label" fill="#1971c2">receives</text>
  <polyline points="1125,790.0 1520,790 1520,1050 1780,1050.0" fill="none" stroke="#1971c2" stroke-width="3" stroke-linecap="round" stroke-linejoin="round" marker-end="url(#arrow-props)" />
  <rect x="1279.3" y="776.0" width="86.4" height="28" rx="8" fill="#ffffff" fill-opacity="0.94" />
  <text x="1322.5" y="795.0" text-anchor="middle" class="edge-label" fill="#1971c2">receives</text>
  <polyline points="1125,947.5 1480,947 1480,1050 1780,1050.0" fill="none" stroke="#1971c2" stroke-width="3" stroke-linecap="round" stroke-linejoin="round" marker-end="url(#arrow-props)" />
  <rect x="1259.3" y="933.25" width="86.4" height="28" rx="8" fill="#ffffff" fill-opacity="0.94" />
  <text x="1302.5" y="952.25" text-anchor="middle" class="edge-label" fill="#1971c2">receives</text>
  <polyline points="425,1445.0 525,1450.0" fill="none" stroke="#d9480f" stroke-width="3" stroke-linecap="round" stroke-linejoin="round" marker-end="url(#arrow-context)" />
  <rect x="427.65" y="1433.5" width="94.7" height="28" rx="8" fill="#ffffff" fill-opacity="0.94" />
  <text x="475.0" y="1452.5" text-anchor="middle" class="edge-label" fill="#d9480f">useAuth()</text>
  <polyline points="425,1700.0 525,1705.0" fill="none" stroke="#d9480f" stroke-width="3" stroke-linecap="round" stroke-linejoin="round" marker-end="url(#arrow-context)" />
  <rect x="423.5" y="1688.5" width="103.0" height="28" rx="8" fill="#ffffff" fill-opacity="0.94" />
  <text x="475.0" y="1707.5" text-anchor="middle" class="edge-label" fill="#d9480f">useTheme()</text>
  <polyline points="1595,1440.0 1700,1425.0" fill="none" stroke="#2b8a3e" stroke-width="3" stroke-linecap="round" stroke-linejoin="round" marker-end="url(#arrow-redux)" />
  <rect x="1596.0" y="1418.5" width="103.0" height="28" rx="8" fill="#ffffff" fill-opacity="0.94" />
  <text x="1647.5" y="1437.5" text-anchor="middle" class="edge-label" fill="#2b8a3e">Redux flow</text>
  <polyline points="260.0,1550 260,1580 1160,1580 1160,1700 1240,1722.5" fill="none" stroke="#868e96" stroke-width="3" stroke-linecap="round" stroke-linejoin="round" marker-end="url(#arrow-storage)" stroke-dasharray="10 8" />
  <rect x="592.1" y="1566.0" width="235.8" height="28" rx="8" fill="#ffffff" fill-opacity="0.94" />
  <text x="710.0" y="1585.0" text-anchor="middle" class="edge-label" fill="#868e96">read / write / remove auth</text>
  <polyline points="425,1700.0 860,1700 1160,1700 1240,1722.5" fill="none" stroke="#868e96" stroke-width="3" stroke-linecap="round" stroke-linejoin="round" marker-end="url(#arrow-storage)" stroke-dasharray="10 8" />
  <rect x="557.8" y="1686.0" width="169.4" height="28" rx="8" fill="#ffffff" fill-opacity="0.94" />
  <text x="642.5" y="1705.0" text-anchor="middle" class="edge-label" fill="#868e96">read / write theme</text>
  <polyline points="1417.5,1540 1417.5,1630" fill="none" stroke="#868e96" stroke-width="3" stroke-linecap="round" stroke-linejoin="round" marker-end="url(#arrow-storage)" stroke-dasharray="10 8" />
  <rect x="1299.6" y="1571.0" width="235.8" height="28" rx="8" fill="#ffffff" fill-opacity="0.94" />
  <text x="1417.5" y="1590.0" text-anchor="middle" class="edge-label" fill="#868e96">slice reads saved currency</text>
  <polyline points="1880.0,1510 1880,1580 1640,1580 1640,1722 1595,1722.5" fill="none" stroke="#868e96" stroke-width="3" stroke-linecap="round" stroke-linejoin="round" marker-end="url(#arrow-storage)" stroke-dasharray="10 8" />
  <rect x="1658.7" y="1566.0" width="202.60000000000002" height="28" rx="8" fill="#ffffff" fill-opacity="0.94" />
  <text x="1760.0" y="1585.0" text-anchor="middle" class="edge-label" fill="#868e96">Header writes currency</text>
  <polyline points="425,1700.0 1120,1700 1120,1850 1650,1850 1650,1720 1700,1720.0" fill="none" stroke="#d9480f" stroke-width="3" stroke-linecap="round" stroke-linejoin="round" marker-end="url(#arrow-context)" />
  <rect x="667.05" y="1686.0" width="210.9" height="28" rx="8" fill="#ffffff" fill-opacity="0.94" />
  <text x="772.5" y="1705.0" text-anchor="middle" class="edge-label" fill="#d9480f">add / remove dark class</text>
  <rect x="90" y="145" width="210" height="90" rx="18" fill="#f3d9fa" stroke="#5f3dc4" stroke-width="3" />
  <text x="195.0" y="179" text-anchor="middle" class="node-title" font-size="24">main.jsx</text>
  <text x="195.0" y="210" text-anchor="middle" class="node-line" font-size="20">entry point</text>
  <rect x="365" y="95" width="230" height="78" rx="18" fill="#fff3bf" stroke="#e67700" stroke-width="3" />
  <text x="480.0" y="129" text-anchor="middle" class="node-title" font-size="24">BrowserRouter</text>
  <text x="480.0" y="160" text-anchor="middle" class="node-line" font-size="20">React Router</text>
  <rect x="365" y="210" width="230" height="78" rx="18" fill="#d3f9d8" stroke="#2b8a3e" stroke-width="3" />
  <text x="480.0" y="244" text-anchor="middle" class="node-title" font-size="24">Redux Provider</text>
  <text x="480.0" y="275" text-anchor="middle" class="node-line" font-size="20">store={store}</text>
  <rect x="675" y="210" width="210" height="78" rx="18" fill="#d3f9d8" stroke="#2b8a3e" stroke-width="3" />
  <text x="780.0" y="244" text-anchor="middle" class="node-title" font-size="24">store.js</text>
  <text x="780.0" y="275" text-anchor="middle" class="node-line" font-size="20">3 Redux reducers</text>
  <rect x="955" y="210" width="245" height="78" rx="18" fill="#d3f9d8" stroke="#2b8a3e" stroke-width="3" />
  <text x="1077.5" y="244" text-anchor="middle" class="node-title" font-size="24">currencySlice.js</text>
  <text x="1077.5" y="275" text-anchor="middle" class="node-line" font-size="20">selectedCurrency</text>
  <rect x="675" y="95" width="210" height="90" rx="18" fill="#f3d9fa" stroke="#5f3dc4" stroke-width="3" />
  <text x="780.0" y="129" text-anchor="middle" class="node-title" font-size="24">App.jsx</text>
  <text x="780.0" y="160" text-anchor="middle" class="node-line" font-size="20">providers + routes</text>
  <rect x="955" y="80" width="220" height="78" rx="18" fill="#ffe8cc" stroke="#d9480f" stroke-width="3" />
  <text x="1065.0" y="127.0" text-anchor="middle" class="node-title" font-size="24">AuthProvider</text>
  <rect x="1235" y="80" width="220" height="78" rx="18" fill="#ffe8cc" stroke="#d9480f" stroke-width="3" />
  <text x="1345.0" y="127.0" text-anchor="middle" class="node-title" font-size="24">ThemeProvider</text>
  <rect x="1515" y="80" width="180" height="78" rx="18" fill="#fff3bf" stroke="#e67700" stroke-width="3" />
  <text x="1605.0" y="127.0" text-anchor="middle" class="node-title" font-size="24">Routes</text>
  <rect x="1480" y="205" width="230" height="85" rx="18" fill="#fff3bf" stroke="#e67700" stroke-width="3" />
  <text x="1595.0" y="239" text-anchor="middle" class="node-title" font-size="20">/</text>
  <text x="1595.0" y="270" text-anchor="middle" class="node-line" font-size="17">Navigate → /login</text>
  <rect x="1760" y="205" width="235" height="85" rx="18" fill="#d0ebff" stroke="#1971c2" stroke-width="3" />
  <text x="1877.5" y="239" text-anchor="middle" class="node-title" font-size="20">/login</text>
  <text x="1877.5" y="270" text-anchor="middle" class="node-line" font-size="17">LoginPage</text>
  <rect x="1480" y="335" width="230" height="95" rx="18" fill="#fff3bf" stroke="#e67700" stroke-width="3" />
  <text x="1595.0" y="369" text-anchor="middle" class="node-title" font-size="19">Pathless parent route</text>
  <text x="1595.0" y="400" text-anchor="middle" class="node-line" font-size="16">ProtectedRoute</text>
  <rect x="1760" y="335" width="235" height="95" rx="18" fill="#e5dbff" stroke="#6741d9" stroke-width="3" />
  <text x="1877.5" y="369" text-anchor="middle" class="node-title" font-size="21">AppLayout</text>
  <text x="1877.5" y="400" text-anchor="middle" class="node-line" font-size="18">protected shell</text>
  <rect x="1080" y="500" width="220" height="88" rx="18" fill="#d0ebff" stroke="#1971c2" stroke-width="3" />
  <text x="1190.0" y="534" text-anchor="middle" class="node-title" font-size="18">/dashboard</text>
  <text x="1190.0" y="565" text-anchor="middle" class="node-line" font-size="15">DashboardPage</text>
  <rect x="1340" y="500" width="220" height="88" rx="18" fill="#d0ebff" stroke="#1971c2" stroke-width="3" />
  <text x="1450.0" y="534" text-anchor="middle" class="node-title" font-size="18">/coins</text>
  <text x="1450.0" y="565" text-anchor="middle" class="node-line" font-size="15">CoinsPage</text>
  <rect x="1600" y="500" width="220" height="88" rx="18" fill="#d0ebff" stroke="#1971c2" stroke-width="3" />
  <text x="1710.0" y="534" text-anchor="middle" class="node-title" font-size="18">/watchlist</text>
  <text x="1710.0" y="565" text-anchor="middle" class="node-line" font-size="15">WatchlistPage</text>
  <rect x="1860" y="500" width="220" height="88" rx="18" fill="#d0ebff" stroke="#1971c2" stroke-width="3" />
  <text x="1970.0" y="534" text-anchor="middle" class="node-title" font-size="18">/news</text>
  <text x="1970.0" y="565" text-anchor="middle" class="node-line" font-size="15">NewsPage</text>
  <rect x="2120" y="500" width="220" height="88" rx="18" fill="#d0ebff" stroke="#1971c2" stroke-width="3" />
  <text x="2230.0" y="534" text-anchor="middle" class="node-title" font-size="18">/coins/:id</text>
  <text x="2230.0" y="565" text-anchor="middle" class="node-line" font-size="15">CoinDetailsPage</text>
  <rect x="100" y="800" width="245" height="110" rx="18" fill="#e5dbff" stroke="#6741d9" stroke-width="3" />
  <text x="222.5" y="834" text-anchor="middle" class="node-title" font-size="24">AppLayout</text>
  <text x="222.5" y="865" text-anchor="middle" class="node-line" font-size="20">owns sidebar state</text>
  <rect x="100" y="980" width="245" height="95" rx="18" fill="#c5f6fa" stroke="#0b7285" stroke-width="3" />
  <text x="222.5" y="1014" text-anchor="middle" class="node-title" font-size="21">isSidebarOpen</text>
  <text x="222.5" y="1045" text-anchor="middle" class="node-line" font-size="18">local useState(false)</text>
  <rect x="470" y="755" width="245" height="110" rx="18" fill="#e5dbff" stroke="#6741d9" stroke-width="3" />
  <text x="592.5" y="789" text-anchor="middle" class="node-title" font-size="24">Sidebar</text>
  <text x="592.5" y="820" text-anchor="middle" class="node-line" font-size="20">navigation + logout</text>
  <rect x="470" y="925" width="245" height="100" rx="18" fill="#e5dbff" stroke="#6741d9" stroke-width="3" />
  <text x="592.5" y="959" text-anchor="middle" class="node-title" font-size="21">Header</text>
  <text x="592.5" y="990" text-anchor="middle" class="node-line" font-size="18">title + currency + name</text>
  <rect x="470" y="1060" width="245" height="85" rx="18" fill="#fff3bf" stroke="#e67700" stroke-width="3" />
  <text x="592.5" y="1094" text-anchor="middle" class="node-title" font-size="20">Outlet</text>
  <text x="592.5" y="1125" text-anchor="middle" class="node-line" font-size="17">matched page appears here</text>
  <rect x="880" y="735" width="245" height="110" rx="18" fill="#e5dbff" stroke="#6741d9" stroke-width="3" />
  <text x="1002.5" y="769" text-anchor="middle" class="node-title" font-size="24">SidebarItem</text>
  <text x="1002.5" y="800" text-anchor="middle" class="node-line" font-size="20">used 4×</text>
  <rect x="880" y="895" width="245" height="105" rx="18" fill="#e5dbff" stroke="#6741d9" stroke-width="3" />
  <text x="1002.5" y="929" text-anchor="middle" class="node-title" font-size="24">ThemeToggle</text>
  <text x="1002.5" y="960" text-anchor="middle" class="node-line" font-size="20">inside Sidebar</text>
  <rect x="1320" y="745" width="300" height="150" rx="18" fill="#fff3bf" stroke="#e67700" stroke-width="3" />
  <text x="1470.0" y="779" text-anchor="middle" class="node-title" font-size="21">React Router tools</text>
  <text x="1470.0" y="810" text-anchor="middle" class="node-line" font-size="18">NavLink</text>
  <text x="1470.0" y="834" text-anchor="middle" class="node-line" font-size="18">useNavigate</text>
  <text x="1470.0" y="858" text-anchor="middle" class="node-line" font-size="18">useLocation</text>
  <rect x="1320" y="1010" width="300" height="105" rx="18" fill="#d0ebff" stroke="#1971c2" stroke-width="3" />
  <text x="1470.0" y="1044" text-anchor="middle" class="node-title" font-size="20">Current protected page</text>
  <text x="1470.0" y="1075" text-anchor="middle" class="node-line" font-size="17">Dashboard / Coins /</text>
  <text x="1470.0" y="1099" text-anchor="middle" class="node-line" font-size="17">Watchlist / News / Details</text>
  <rect x="1780" y="750" width="480" height="170" rx="18" fill="#ebfbee" stroke="#5c940d" stroke-width="3" />
  <text x="2020.0" y="784" text-anchor="middle" class="node-title" font-size="22">Props passed into Sidebar</text>
  <text x="2020.0" y="815" text-anchor="middle" class="node-line" font-size="19">isSidebarOpen</text>
  <text x="2020.0" y="839" text-anchor="middle" class="node-line" font-size="19">toggleSidebarOpen</text>
  <rect x="1780" y="965" width="480" height="170" rx="18" fill="#ebfbee" stroke="#5c940d" stroke-width="3" />
  <text x="2020.0" y="999" text-anchor="middle" class="node-title" font-size="20">Props passed inside Sidebar</text>
  <text x="2020.0" y="1030" text-anchor="middle" class="node-line" font-size="17">SidebarItem: to, icon, label, isSidebarOpen</text>
  <text x="2020.0" y="1054" text-anchor="middle" class="node-line" font-size="17">ThemeToggle: isSidebarOpen</text>
  <rect x="95" y="1340" width="330" height="210" rx="18" fill="#ffe8cc" stroke="#d9480f" stroke-width="3" />
  <text x="260.0" y="1374" text-anchor="middle" class="node-title" font-size="21">AuthContext + AuthProvider</text>
  <text x="260.0" y="1405" text-anchor="middle" class="node-line" font-size="18">isAuthenticated</text>
  <text x="260.0" y="1429" text-anchor="middle" class="node-line" font-size="18">displayName</text>
  <text x="260.0" y="1453" text-anchor="middle" class="node-line" font-size="18">authIsLoading</text>
  <text x="260.0" y="1477" text-anchor="middle" class="node-line" font-size="18">login()</text>
  <text x="260.0" y="1501" text-anchor="middle" class="node-line" font-size="18">logout()</text>
  <rect x="525" y="1315" width="550" height="270" rx="18" fill="#e5dbff" stroke="#6741d9" stroke-width="3" />
  <text x="800.0" y="1349" text-anchor="middle" class="node-title" font-size="20">Auth consumers</text>
  <text x="800.0" y="1380" text-anchor="middle" class="node-line" font-size="17">LoginPage → login()</text>
  <text x="800.0" y="1404" text-anchor="middle" class="node-line" font-size="17">ProtectedRoute → auth status/loading</text>
  <text x="800.0" y="1428" text-anchor="middle" class="node-line" font-size="17">Sidebar → logout()</text>
  <text x="800.0" y="1452" text-anchor="middle" class="node-line" font-size="17">Header → displayName</text>
  <text x="800.0" y="1476" text-anchor="middle" class="node-line" font-size="17">DashboardPage → displayName</text>
  <rect x="95" y="1620" width="330" height="160" rx="18" fill="#ffe8cc" stroke="#d9480f" stroke-width="3" />
  <text x="260.0" y="1654" text-anchor="middle" class="node-title" font-size="21">ThemeContext + ThemeProvider</text>
  <text x="260.0" y="1685" text-anchor="middle" class="node-line" font-size="18">theme</text>
  <text x="260.0" y="1709" text-anchor="middle" class="node-line" font-size="18">toggleTheme()</text>
  <text x="260.0" y="1733" text-anchor="middle" class="node-line" font-size="18">resetTheme()</text>
  <rect x="525" y="1640" width="550" height="130" rx="18" fill="#e5dbff" stroke="#6741d9" stroke-width="3" />
  <text x="800.0" y="1674" text-anchor="middle" class="node-title" font-size="20">Theme consumers</text>
  <text x="800.0" y="1705" text-anchor="middle" class="node-line" font-size="17">ThemeToggle → theme + toggleTheme()</text>
  <text x="800.0" y="1729" text-anchor="middle" class="node-line" font-size="17">Sidebar → resetTheme() on logout</text>
  <rect x="1240" y="1340" width="355" height="200" rx="18" fill="#d3f9d8" stroke="#2b8a3e" stroke-width="3" />
  <text x="1417.5" y="1374" text-anchor="middle" class="node-title" font-size="20">Redux currency state</text>
  <text x="1417.5" y="1405" text-anchor="middle" class="node-line" font-size="17">store.js → currency reducer</text>
  <text x="1417.5" y="1429" text-anchor="middle" class="node-line" font-size="17">currencySlice → selectedCurrency</text>
  <text x="1417.5" y="1453" text-anchor="middle" class="node-line" font-size="17">changeCurrency(action.payload)</text>
  <rect x="1700" y="1340" width="360" height="170" rx="18" fill="#e5dbff" stroke="#6741d9" stroke-width="3" />
  <text x="1880.0" y="1374" text-anchor="middle" class="node-title" font-size="20">Header</text>
  <text x="1880.0" y="1405" text-anchor="middle" class="node-line" font-size="17">useSelector reads currency</text>
  <text x="1880.0" y="1429" text-anchor="middle" class="node-line" font-size="17">useDispatch sends changeCurrency</text>
  <rect x="1240" y="1630" width="355" height="185" rx="18" fill="#e9ecef" stroke="#495057" stroke-width="3" />
  <text x="1417.5" y="1664" text-anchor="middle" class="node-title" font-size="21">localStorage</text>
  <text x="1417.5" y="1695" text-anchor="middle" class="node-line" font-size="18">coinlume_auth</text>
  <text x="1417.5" y="1719" text-anchor="middle" class="node-line" font-size="18">theme</text>
  <text x="1417.5" y="1743" text-anchor="middle" class="node-line" font-size="18">coinlume_currency</text>
  <rect x="1700" y="1645" width="360" height="150" rx="18" fill="#e9ecef" stroke="#495057" stroke-width="3" />
  <text x="1880.0" y="1679" text-anchor="middle" class="node-title" font-size="20">document.documentElement</text>
  <text x="1880.0" y="1710" text-anchor="middle" class="node-line" font-size="17">ThemeContext adds/removes</text>
  <text x="1880.0" y="1734" text-anchor="middle" class="node-line" font-size="17">the dark class on &lt;html&gt;</text>
  <rect x="2110" y="1340" width="205" height="455" rx="18" fill="#ebfbee" stroke="#5c940d" stroke-width="3" />
  <text x="2212.5" y="1374" text-anchor="middle" class="node-title" font-size="18">Current-state note</text>
  <text x="2212.5" y="1405" text-anchor="middle" class="node-line" font-size="15">Coin API connected</text>
  <text x="2212.5" y="1427" text-anchor="middle" class="node-line" font-size="15">Global API connected</text>
  <text x="2212.5" y="1449" text-anchor="middle" class="node-line" font-size="15">Dashboard features added</text>
  <text x="2212.5" y="1471" text-anchor="middle" class="node-line" font-size="15">Other pages still partial</text>
  <text x="2212.5" y="1493" text-anchor="middle" class="node-line" font-size="15" />
  <text x="2212.5" y="1515" text-anchor="middle" class="node-line" font-size="15">Currency conversion pending</text>
  <text x="2212.5" y="1537" text-anchor="middle" class="node-line" font-size="15">Keep updating after features</text>
  <text x="70" y="2685.0" class="legend" font-size="18">Legend:</text>
  <rect x="155" y="2667.0" width="24" height="18" rx="4" fill="#d0ebff" stroke="#1971c2" stroke-width="2" />
  <text x="187" y="2682.0" class="legend">Pages</text>
  <rect x="266" y="2667.0" width="24" height="18" rx="4" fill="#e5dbff" stroke="#6741d9" stroke-width="2" />
  <text x="298" y="2682.0" class="legend">Components</text>
  <rect x="422" y="2667.0" width="24" height="18" rx="4" fill="#ffe8cc" stroke="#d9480f" stroke-width="2" />
  <text x="454" y="2682.0" class="legend">Context</text>
  <rect x="551" y="2667.0" width="24" height="18" rx="4" fill="#d3f9d8" stroke="#2b8a3e" stroke-width="2" />
  <text x="583" y="2682.0" class="legend">Redux</text>
  <rect x="662" y="2667.0" width="24" height="18" rx="4" fill="#fff3bf" stroke="#e67700" stroke-width="2" />
  <text x="694" y="2682.0" class="legend">Routing</text>
  <rect x="791" y="2667.0" width="24" height="18" rx="4" fill="#e9ecef" stroke="#495057" stroke-width="2" />
  <text x="823" y="2682.0" class="legend">Storage/browser</text>
  <rect x="992" y="2667.0" width="24" height="18" rx="4" fill="#c5f6fa" stroke="#0b7285" stroke-width="2" />
  <text x="1024" y="2682.0" class="legend">Local state</text>
  <rect x="40" y="1920" width="2320" height="700" rx="26" fill="#ffffff" stroke="#ced4da" stroke-width="3" />
  <text x="68" y="1962" class="panel-title" font-size="26" text-anchor="start">4. Dashboard market data and reusable cards</text>
  <text x="68" y="1990" class="subtitle" font-size="17" text-anchor="start">How CoinLore data enters Redux, how DashboardPage prepares it, and which props move into each dashboard component</text>
  <rect x="70" y="2030" width="320" height="140" rx="18" fill="#ffe3e3" stroke="#c92a2a" stroke-width="3" />
  <text x="230" y="2064" class="node-title" font-size="21" text-anchor="middle">CoinLore tickers API</text>
  <text x="230" y="2100" class="node-line" font-size="17" text-anchor="middle">start=0 &amp; limit=10</text>
  <text x="230" y="2124" class="node-line" font-size="17" text-anchor="middle">returns individual coins</text>
  <rect x="70" y="2250" width="320" height="140" rx="18" fill="#ffe3e3" stroke="#c92a2a" stroke-width="3" />
  <text x="230" y="2284" class="node-title" font-size="21" text-anchor="middle">CoinLore global API</text>
  <text x="230" y="2320" class="node-line" font-size="17" text-anchor="middle">/api/global/</text>
  <text x="230" y="2344" class="node-line" font-size="17" text-anchor="middle">returns one global object</text>
  <rect x="470" y="2025" width="330" height="165" rx="18" fill="#d3f9d8" stroke="#2b8a3e" stroke-width="3" />
  <text x="635" y="2059" class="node-title" font-size="22" text-anchor="middle">coinsSlice.js</text>
  <text x="635" y="2100" class="node-line" font-size="17" text-anchor="middle">fetchCoins()</text>
  <text x="635" y="2126" class="node-line" font-size="17" text-anchor="middle">coins[] • status • error</text>
  <rect x="470" y="2240" width="330" height="165" rx="18" fill="#d3f9d8" stroke="#2b8a3e" stroke-width="3" />
  <text x="635" y="2274" class="node-title" font-size="22" text-anchor="middle">marketSlice.js</text>
  <text x="635" y="2315" class="node-line" font-size="17" text-anchor="middle">fetchMarketData()</text>
  <text x="635" y="2341" class="node-line" font-size="17" text-anchor="middle">marketData • status • error</text>
  <rect x="900" y="2070" width="400" height="315" rx="18" fill="#d0ebff" stroke="#1971c2" stroke-width="3" />
  <text x="1100" y="2106" class="node-title" font-size="23" text-anchor="middle">DashboardPage.jsx</text>
  <text x="1100" y="2145" class="node-line" font-size="16" text-anchor="middle">dispatches each thunk only when status is idle</text>
  <text x="1100" y="2183" class="node-line" font-size="16" text-anchor="middle">reads both Redux slices with useSelector</text>
  <text x="1100" y="2221" class="node-line" font-size="16" text-anchor="middle">topCoins = apiCoins.slice(0, 5)</text>
  <text x="1100" y="2259" class="node-line" font-size="16" text-anchor="middle">formats currency, percentages, and counts</text>
  <text x="1100" y="2297" class="node-line" font-size="16" text-anchor="middle">handles one global loading / error / Retry state</text>
  <rect x="1410" y="2015" width="330" height="160" rx="18" fill="#e5dbff" stroke="#6741d9" stroke-width="3" />
  <text x="1575" y="2049" class="node-title" font-size="20" text-anchor="middle">TopMarketCapShare</text>
  <text x="1575" y="2090" class="node-line" font-size="16" text-anchor="middle">props: topCoins, apiStatus</text>
  <text x="1575" y="2116" class="node-line" font-size="16" text-anchor="middle">calculates top-five share</text>
  <rect x="1410" y="2225" width="330" height="175" rx="18" fill="#e5dbff" stroke="#6741d9" stroke-width="3" />
  <text x="1575" y="2259" class="node-title" font-size="20" text-anchor="middle">TopCryptocurrencies</text>
  <text x="1575" y="2300" class="node-line" font-size="16" text-anchor="middle">props: topCoins, apiStatus, onRetry</text>
  <text x="1575" y="2326" class="node-line" font-size="16" text-anchor="middle">shows top-five table</text>
  <rect x="1830" y="2045" width="350" height="190" rx="18" fill="#e5dbff" stroke="#6741d9" stroke-width="3" />
  <text x="2005" y="2079" class="node-title" font-size="21" text-anchor="middle">MarketStatCard</text>
  <text x="2005" y="2120" class="node-line" font-size="16" text-anchor="middle">rendered 4×</text>
  <text x="2005" y="2147" class="node-line" font-size="16" text-anchor="middle">props: title, value, smallText, isPositive</text>
  <text x="2005" y="2174" class="node-line" font-size="16" text-anchor="middle">presentation only</text>
  <rect x="1810" y="2280" width="500" height="275" rx="18" fill="#f1f3f5" stroke="#495057" stroke-width="3" />
  <text x="2060" y="2314" class="node-title" font-size="20" text-anchor="middle">Four cards produced from global data</text>
  <text x="1840" y="2355" class="node-line" font-size="16" text-anchor="start">Total Market Cap → total_mcap + mcap_change</text>
  <text x="1840" y="2382" class="node-line" font-size="16" text-anchor="start">24h Trading Volume → total_volume + volume_change</text>
  <text x="1840" y="2409" class="node-line" font-size="16" text-anchor="start">Bitcoin Dominance → btc_d + eth_d</text>
  <text x="1840" y="2436" class="node-line" font-size="16" text-anchor="start">Tracked Cryptocurrencies → coins_count + active_markets</text>
  <text x="1840" y="2463" class="node-line" font-size="16" text-anchor="start" />
  <text x="1840" y="2490" class="node-line" font-size="16" text-anchor="start">Only market-cap and volume changes use green/red trend text.</text>
  <polyline points="390,2100 470,2100" fill="none" stroke="#c92a2a" stroke-width="3" stroke-linecap="round" stroke-linejoin="round" marker-end="url(#arrow-api)" />
  <rect x="375" y="2055" width="110" height="28" rx="8" fill="#ffffff" stroke="#ffffff" stroke-width="0" />
  <text x="430" y="2075" class="edge-label" font-size="14" text-anchor="middle" fill="#c92a2a">data[]</text>
  <polyline points="390,2320 470,2320" fill="none" stroke="#c92a2a" stroke-width="3" stroke-linecap="round" stroke-linejoin="round" marker-end="url(#arrow-api)" />
  <rect x="375" y="2275" width="110" height="28" rx="8" fill="#ffffff" stroke="#ffffff" stroke-width="0" />
  <text x="430" y="2295" class="edge-label" font-size="14" text-anchor="middle" fill="#c92a2a">result[0]</text>
  <polyline points="800,2105 900,2160" fill="none" stroke="#2b8a3e" stroke-width="3" stroke-linecap="round" stroke-linejoin="round" marker-end="url(#arrow-redux)" />
  <rect x="795" y="2100" width="110" height="28" rx="8" fill="#ffffff" stroke="#ffffff" stroke-width="0" />
  <text x="850" y="2120" class="edge-label" font-size="14" text-anchor="middle" fill="#2b8a3e">Redux state</text>
  <polyline points="800,2325 900,2285" fill="none" stroke="#2b8a3e" stroke-width="3" stroke-linecap="round" stroke-linejoin="round" marker-end="url(#arrow-redux)" />
  <rect x="795" y="2290" width="110" height="28" rx="8" fill="#ffffff" stroke="#ffffff" stroke-width="0" />
  <text x="850" y="2310" class="edge-label" font-size="14" text-anchor="middle" fill="#2b8a3e">Redux state</text>
  <polyline points="1300,2140 1410,2095" fill="none" stroke="#1971c2" stroke-width="3" stroke-linecap="round" stroke-linejoin="round" marker-end="url(#arrow-props)" />
  <rect x="1300" y="2065" width="110" height="28" rx="8" fill="#ffffff" stroke="#ffffff" stroke-width="0" />
  <text x="1355" y="2085" class="edge-label" font-size="14" text-anchor="middle" fill="#1971c2">topCoins + status</text>
  <polyline points="1300,2285 1410,2310" fill="none" stroke="#1971c2" stroke-width="3" stroke-linecap="round" stroke-linejoin="round" marker-end="url(#arrow-props)" />
  <rect x="1300" y="2320" width="110" height="28" rx="8" fill="#ffffff" stroke="#ffffff" stroke-width="0" />
  <text x="1355" y="2340" class="edge-label" font-size="14" text-anchor="middle" fill="#1971c2">topCoins + retry</text>
  <polyline points="1300,2215 1830,2140" fill="none" stroke="#1971c2" stroke-width="3" stroke-linecap="round" stroke-linejoin="round" marker-end="url(#arrow-props)" />
  <rect x="1505" y="2120" width="110" height="28" rx="8" fill="#ffffff" stroke="#ffffff" stroke-width="0" />
  <text x="1560" y="2140" class="edge-label" font-size="14" text-anchor="middle" fill="#1971c2">display-ready card props</text>
  <polyline points="2005,2235 2050,2280" fill="none" stroke="#6741d9" stroke-width="3" stroke-linecap="round" stroke-linejoin="round" marker-end="url(#arrow-structure)" />
  <rect x="1995" y="2235" width="110" height="28" rx="8" fill="#ffffff" stroke="#ffffff" stroke-width="0" />
  <text x="2050" y="2255" class="edge-label" font-size="14" text-anchor="middle" fill="#6741d9">renders 4×</text>
  <rect x="1160" y="2667" width="24" height="18" rx="4" fill="#ffe3e3" stroke="#c92a2a" stroke-width="2" />
  <text x="1192" y="2682" class="legend" font-size="17" text-anchor="start">API</text>
</svg>